<?xml version="1.0" encoding="UTF-8"?><svg id="Layer_2" xmlns="http://www.w3.org/2000/svg" xmlns:xlink="http://www.w3.org/1999/xlink" viewBox="0 0 1204.2 247.05"><defs><radialGradient id="radial-gradient" cx="123.53" cy="123.54" fx="123.53" fy="123.54" r="87.22" gradientUnits="userSpaceOnUse"><stop offset="0" stop-color="#fff" stop-opacity=".4"/><stop offset=".32" stop-color="#fff" stop-opacity=".27"/><stop offset="1" stop-color="#fff" stop-opacity="0"/></radialGradient></defs><g id="Layer_1-2"><circle cx="123.53" cy="123.53" r="123.53" style="fill:#1d3659;"/><circle cx="123.53" cy="123.54" r="87.22" style="fill:url(#radial-gradient);"/><path d="M156.39,140.33c1.51,1.48,5.4.23,7.22-.25,10.77-2.87,28.23-17.47,39.18-12.11,7.11,3.48,5.99,15.47,11.31,17.29,7.59,2.59,17.65-6.69,26.53-3.7.88.3,4.15,1.99,4.63,2.97-.03.27-.65,3.69-.88,4.6-1.62,2.19-4.98-.02-7.18-.02-10.82,0-14.71,9.43-29.71,4.21-3.83-1.33-7.77-7.43-12.1-7.54-3.84-.09-21.47,9.63-27.68,11.29-15.35,4.1-27.48,1.19-34.91-13.65-7.38-14.71-2.59-26.87-24.94-20.98s-74.57,45.92-96.59,28.36C4.47,145.38-.3,131.95.03,120.74c.12-4.01.3-7.75.69-10.74,18.74,45.08,59.43,8,85.4-6.51,15.17-8.48,63.16-32.4,73.93-8.54,5.67,12.56-8.69,40.44-3.66,45.37Z" style="fill:#fdffff;"/><path d="M235.37,176.04s-.08.06-.12.09c-15.98,10.89-25.33.79-35.56-1.25-21.53-4.29-43.8,19.08-71.11,4.28-16.93-9.18-13.54-25-37.6-16.82-11.18,3.8-21.18,12.12-33.14,13.96-27.99,4.32-53.87-12.86-53.59-20.52-.21-.6-.31-1.13-.41-1.54.77,1.76,31.52,22.85,53.56,15.93,14.81-4.65,35.87-20.3,51.09-15.84,8.89,2.6,14.39,13.9,22.72,18.66,23.22,13.25,45.58-7.76,67.84-5.3,13.29,1.47,15.46,8.63,32.08,4,1.21-.34,6.09-2.54,7.48-3.2.2-.33-2.73,6.67-3.25,7.56Z" style="fill:#fdffff;"/><circle cx="81.49" cy="201.71" r="8.41" style="fill:none; stroke:#fff; stroke-linecap:round; stroke-linejoin:round; stroke-width:2.22px;"/><path d="M130.11,196.47c-.74-.93-1.68-1.71-2.75-2.26-1.15-.59-2.45-.92-3.83-.92-4.64,0-8.41,3.77-8.41,8.41s3.77,8.41,8.41,8.41c1.46,0,2.84-.37,4.04-1.03.97-.53,1.82-1.25,2.51-2.1" style="fill:none; stroke:#fff; stroke-linecap:round; stroke-linejoin:round; stroke-width:2.22px;"/><path d="M109.05,206.99c-1.54,1.91-3.9,3.13-6.54,3.13-4.64,0-8.41-3.77-8.41-8.41s3.77-8.41,8.41-8.41c2.61,0,4.95,1.19,6.49,3.06" style="fill:none; stroke:#fff; stroke-linecap:round; stroke-linejoin:round; stroke-width:2.22px;"/><path d="M140.57,209.12c-2.64-1.42-4.44-4.21-4.44-7.42,0-4.64,3.77-8.41,8.41-8.41s8.41,3.77,8.41,8.41c0,3.23-1.82,6.04-4.49,7.45" style="fill:none; stroke:#fff; stroke-linecap:round; stroke-linejoin:round; stroke-width:2.22px;"/><line x1="115.12" y1="201.71" x2="127.36" y2="201.71" style="fill:none; stroke:#fff; stroke-linecap:round; stroke-linejoin:round; stroke-width:2.22px;"/><line x1="136.13" y1="201.71" x2="152.95" y2="201.71" style="fill:none; stroke:#fff; stroke-linecap:round; stroke-linejoin:round; stroke-width:2.22px;"/><path d="M161.5,209.07c-2.59-1.43-4.35-4.19-4.35-7.37s1.84-6.06,4.53-7.46l7.8,14.91c2.67-1.41,4.5-4.21,4.5-7.45s-1.82-6.03-4.49-7.44" style="fill:none; stroke:#fff; stroke-linecap:round; stroke-linejoin:round; stroke-width:2.22px;"/><path d="M377.09,177.02c-46.33,0-84.03-37.69-84.03-84.03S330.75,8.97,377.09,8.97s84.03,37.69,84.03,84.03-37.69,84.03-84.03,84.03ZM377.09,28.6c-35.5,0-64.39,28.89-64.39,64.39s28.89,64.39,64.39,64.39,64.39-28.89,64.39-64.39-28.89-64.39-64.39-64.39Z" style="fill:#617f99;"/><path d="M748,177.02c-46.33,0-84.03-37.69-84.03-84.03s37.69-84.03,84.03-84.03c13.29,0,26.52,3.18,38.28,9.21,10.57,5.42,20.08,13.21,27.5,22.53,3.38,4.24,2.68,10.42-1.56,13.79-4.24,3.38-10.42,2.68-13.8-1.56-5.7-7.16-12.99-13.13-21.1-17.28-9.12-4.68-18.99-7.05-29.32-7.05-35.5,0-64.39,28.89-64.39,64.39s28.89,64.39,64.39,64.39c10.8,0,21.49-2.72,30.89-7.88,7.41-4.06,13.88-9.47,19.22-16.07,3.4-4.22,9.59-4.88,13.81-1.46,4.22,3.41,4.87,9.59,1.46,13.81-6.95,8.6-15.38,15.65-25.05,20.95-12.29,6.73-26.23,10.29-40.33,10.29Z" style="fill:#617f99;"/><path d="M562.55,177.02c-46.34,0-84.03-37.69-84.03-84.03s37.69-84.03,84.03-84.03c25.17,0,48.8,11.14,64.84,30.57,3.45,4.18,2.86,10.37-1.32,13.82-4.19,3.45-10.38,2.86-13.82-1.32-12.29-14.9-30.41-23.44-49.69-23.44-35.51,0-64.39,28.89-64.39,64.39s28.89,64.39,64.39,64.39c19.55,0,37.81-8.73,50.11-23.95,3.41-4.22,9.59-4.88,13.81-1.46,4.22,3.41,4.87,9.59,1.46,13.81-16.05,19.86-39.88,31.24-65.38,31.24Z" style="fill:#617f99;"/><path d="M968.02,168.51c-3.53,0-6.93-1.9-8.7-5.24-2.53-4.8-.69-10.73,4.11-13.26,21.23-11.19,34.42-33.03,34.42-57.01,0-35.51-28.89-64.39-64.39-64.39s-64.39,28.89-64.39,64.39c0,23.78,13.03,45.54,34.01,56.79,4.78,2.56,6.57,8.51,4.01,13.29-2.56,4.78-8.51,6.57-13.29,4.01-27.37-14.68-44.37-43.07-44.37-74.1,0-46.33,37.69-84.03,84.03-84.03s84.03,37.69,84.03,84.03c0,31.28-17.21,59.78-44.9,74.38-1.46.77-3.03,1.13-4.57,1.13Z" style="fill:#617f99;"/><path d="M781.8,102.81h-108.01c-5.42,0-9.82-4.4-9.82-9.82s4.39-9.82,9.82-9.82h108.01c5.42,0,9.82,4.4,9.82,9.82s-4.39,9.82-9.82,9.82Z" style="fill:#617f99;"/><path d="M1007.67,102.81h-148.42c-5.42,0-9.82-4.4-9.82-9.82s4.39-9.82,9.82-9.82h148.42c5.42,0,9.82,4.4,9.82,9.82s-4.39,9.82-9.82,9.82Z" style="fill:#617f99;"/><path d="M1153.46,168.51c-.98,0-1.97-.15-2.92-.44-2.49-.78-4.57-2.51-5.78-4.82l-63.91-122.21c-16.45,12.03-26.33,31.17-26.33,51.96,0,23.44,12.76,45.05,33.29,56.4,4.75,2.62,6.47,8.6,3.84,13.34-2.62,4.74-8.59,6.47-13.34,3.84-26.79-14.81-43.43-43.01-43.43-73.58s17.34-60.01,45.24-74.56c4.81-2.5,10.73-.64,13.24,4.16l63.89,122.16c16.27-12.04,26.05-31.11,26.05-51.76,0-23.95-13.17-45.79-34.37-56.98-4.79-2.53-6.63-8.47-4.09-13.27,2.53-4.8,8.46-6.63,13.27-4.1,27.66,14.6,44.84,43.09,44.84,74.35s-17.21,59.79-44.9,74.38c-1.42.75-2.99,1.13-4.58,1.13Z" style="fill:#617f99;"/><path d="M293.4,216.04c0-14.24,5.88-20.02,15.18-20.02s14.74,5.44,14.74,19.63-5.94,20.02-15.18,20.02-14.74-5.44-14.74-19.63ZM318.81,216.04c0-12.04-4.12-16.06-10.56-16.06s-10.34,3.68-10.34,15.67,4.12,16.06,10.5,16.06,10.39-3.74,10.39-15.67Z" style="fill:#617f99;"/><path d="M331.24,245.79v-40.58h3.19l.94,3.02h.22c1.43-1.92,3.96-3.57,7.75-3.57,6.82,0,11.11,4.56,11.11,14.3,0,10.45-5.66,16.22-14.24,16.22-1.54,0-3.24-.17-4.73-.5v11.11h-4.23ZM350.1,219.45c0-8.41-3.79-11.11-7.75-11.11-3.68,0-5.83,2.25-6.87,4.18v18.2c1.26.44,3.3.66,4.51.66,6.76,0,10.12-3.96,10.12-11.93Z" style="fill:#617f99;"/><path d="M360.39,220c0-10.83,6.05-15.29,12.7-15.29,7.09,0,10.89,4.62,10.89,11.71,0,1.48-.11,3.24-.33,5.17h-19.03c.38,7.37,3.46,10.17,9.46,10.17,2.97,0,5.67-1.16,6.93-2.25l1.92,3.3c-1.98,1.48-5.11,2.69-9.4,2.69-8.52,0-13.14-4.34-13.14-15.51ZM379.69,218.08c.06-.66.06-1.32.06-1.71,0-5.11-2.2-7.97-7.04-7.97-3.91,0-7.64,2.47-8.03,9.68h15.01Z" style="fill:#617f99;"/><path d="M391.85,235.12v-29.92h3.24l.88,3.13h.22c.83-1.04,3.85-3.74,8.52-3.74,5.99,0,9.57,3.24,9.73,9.9v20.62h-4.29v-19.63c0-4.56-2.25-7.09-6.43-7.09-3.68,0-6.54,2.42-7.59,5.33v21.39h-4.29Z" style="fill:#617f99;"/><path d="M438.05,216.15c0-12.65,5.5-20.13,15.78-20.13,5.88,0,8.96,2.09,10.23,3.19l-2.75,3.35c-1.65-1.38-3.9-2.58-7.92-2.58-6.71,0-10.83,4.89-10.83,15.78s3.91,15.89,11.27,15.89c3.91,0,6.16-1.04,7.53-2.36l2.42,3.13c-1.71,1.65-5.06,3.24-10.56,3.24-10.61,0-15.18-7.64-15.18-19.52Z" style="fill:#617f99;"/><path d="M468.91,227.75c0-6.6,6.49-9.84,17.1-9.68v-3.24c0-4.89-2.36-6.32-6.32-6.32s-5.94,2.2-6.82,3.63l-3.13-2.47c1.04-1.43,3.85-4.89,10.06-4.89s10.17,2.8,10.17,9.07v13.53c0,2.69.83,4.51,2.92,4.51h.77v3.13c-.38.22-.99.33-1.54.33-2.97,0-4.73-1.59-5.44-3.63h-.22c-1.43,1.65-3.85,4.01-8.91,4.01-5.55,0-8.63-3.9-8.63-7.97ZM486.01,228.14v-6.71c-7.2-.27-12.87,1.49-12.87,5.99,0,2.64,1.92,4.78,5.39,4.78s6.1-2.03,7.48-4.07Z" style="fill:#617f99;"/><path d="M497.62,231.82l2.64-3.19c1.81,1.87,4.67,3.3,8.14,3.3,4.18,0,6.21-2.2,6.21-4.73,0-6.76-15.12-4.07-15.12-14.19,0-4.29,3.68-8.3,10.23-8.3,3.57,0,6.93,1.26,8.74,3.19l-2.75,2.97c-1.38-1.43-3.79-2.42-6.1-2.42-4.07,0-5.88,2.04-5.88,4.46,0,6.71,15.12,4.01,15.12,14.19,0,4.12-3.46,8.52-10.67,8.52-4.95,0-8.69-1.87-10.56-3.79Z" style="fill:#617f99;"/><path d="M526.44,225.66v-20.46h4.29v19.58c0,4.89,2.09,7.26,6.54,7.26s7.42-2.48,7.53-7.2v-19.63h4.29v29.92h-3.35l-.82-3.13h-.22c-.82,1.16-3.52,3.74-8.52,3.74-6.16,0-9.57-3.24-9.73-10.06Z" style="fill:#617f99;"/><path d="M556.58,227.75c0-6.6,6.49-9.84,17.1-9.68v-3.24c0-4.89-2.36-6.32-6.32-6.32s-5.94,2.2-6.82,3.63l-3.13-2.47c1.04-1.43,3.85-4.89,10.06-4.89s10.17,2.8,10.17,9.07v13.53c0,2.69.83,4.51,2.92,4.51h.77v3.13c-.38.22-.99.33-1.54.33-2.97,0-4.73-1.59-5.44-3.63h-.22c-1.43,1.65-3.85,4.01-8.91,4.01-5.55,0-8.63-3.9-8.63-7.97ZM573.68,228.14v-6.71c-7.2-.27-12.87,1.49-12.87,5.99,0,2.64,1.92,4.78,5.39,4.78s6.1-2.03,7.48-4.07Z" style="fill:#617f99;"/><path d="M588.53,229.18v-35.8h4.23v34.65c0,2.64.88,3.79,3.13,3.79,1.1,0,1.92-.33,2.47-.6v3.63c-1.1.5-2.58.66-3.74.66-4.12,0-6.1-2.42-6.1-6.32Z" style="fill:#617f99;"/><path d="M620.49,235.12v-38.55h20.46v3.9h-16.06v13.14h14.13v3.9h-14.13v13.69h16.83v3.9h-21.23Z" style="fill:#617f99;"/><path d="M650.52,235.12v-26.56h-4.95v-3.35h5v-4.51c0-4.62,2.7-7.81,8.52-7.81,2.09,0,3.46.28,4.62.66l-.88,3.63c-1.1-.38-2.31-.55-4.01-.55-2.86,0-3.96,1.32-3.96,4.01v4.56h7.75v3.35h-7.81v26.56h-4.29Z" style="fill:#617f99;"/><path d="M670.26,235.12v-26.56h-4.95v-3.35h5v-4.51c0-4.62,2.7-7.81,8.52-7.81,2.09,0,3.46.28,4.62.66l-.88,3.63c-1.1-.38-2.31-.55-4.01-.55-2.86,0-3.96,1.32-3.96,4.01v4.56h7.75v3.35h-7.81v26.56h-4.29Z" style="fill:#617f99;"/><path d="M686.27,220c0-10.83,6.05-15.29,12.7-15.29,7.09,0,10.89,4.62,10.89,11.71,0,1.48-.11,3.24-.33,5.17h-19.03c.38,7.37,3.46,10.17,9.46,10.17,2.97,0,5.67-1.16,6.93-2.25l1.92,3.3c-1.98,1.48-5.11,2.69-9.4,2.69-8.52,0-13.14-4.34-13.14-15.51ZM705.57,218.08c.06-.66.06-1.32.06-1.71,0-5.11-2.2-7.97-7.04-7.97-3.91,0-7.64,2.47-8.03,9.68h15.01Z" style="fill:#617f99;"/><path d="M716.13,220.6c0-11,5.39-15.89,12.7-15.89,4.78,0,7.42,1.87,8.52,3.13l-2.86,3.13c-1.21-1.26-2.97-2.47-5.88-2.47-4.84,0-8.08,3.19-8.08,11.55s3.08,11.77,8.08,11.77c2.75,0,4.62-.99,5.83-2.36l2.64,2.97c-1.21,1.38-3.74,3.19-8.85,3.19-7.31,0-12.1-4.23-12.1-15.01Z" style="fill:#617f99;"/><path d="M744.62,227.15v-18.48h-4.45v-2.75l4.45-.83,1.32-7.75h2.92v7.86h8.25v3.46h-8.25v18.26c0,3.36,1.71,4.73,4.34,4.73,2.42,0,3.79-.55,4.56-1.04l1.21,3.41c-1.16.66-3.13,1.38-6.71,1.38-4.95,0-7.64-2.58-7.64-8.25Z" style="fill:#617f99;"/><path d="M776.36,235.12l12.48-38.55h6.82l12.48,38.55h-4.62l-3.57-11.22h-15.51l-3.57,11.22h-4.51ZM785.71,220h12.98l-4.12-12.98c-.88-2.8-1.54-5.06-2.25-7.42h-.22c-.66,2.31-1.38,4.62-2.2,7.31l-4.18,13.09Z" style="fill:#617f99;"/><path d="M813.15,235.12v-29.92h3.24l.88,3.13h.22c.82-1.04,3.85-3.74,8.52-3.74,5.99,0,9.57,3.24,9.73,9.9v20.62h-4.29v-19.63c0-4.56-2.25-7.09-6.43-7.09-3.68,0-6.54,2.42-7.59,5.33v21.39h-4.29Z" style="fill:#617f99;"/><path d="M843.07,227.75c0-6.6,6.49-9.84,17.1-9.68v-3.24c0-4.89-2.37-6.32-6.32-6.32s-5.94,2.2-6.82,3.63l-3.13-2.47c1.04-1.43,3.85-4.89,10.06-4.89s10.17,2.8,10.17,9.07v13.53c0,2.69.83,4.51,2.92,4.51h.77v3.13c-.38.22-.99.33-1.54.33-2.97,0-4.73-1.59-5.44-3.63h-.22c-1.43,1.65-3.85,4.01-8.91,4.01-5.55,0-8.63-3.9-8.63-7.97ZM860.18,228.14v-6.71c-7.2-.27-12.87,1.49-12.87,5.99,0,2.64,1.92,4.78,5.39,4.78s6.1-2.03,7.48-4.07Z" style="fill:#617f99;"/><path d="M875.03,229.18v-35.8h4.23v34.65c0,2.64.88,3.79,3.13,3.79,1.1,0,1.92-.33,2.47-.6v3.63c-1.1.5-2.58.66-3.74.66-4.12,0-6.1-2.42-6.1-6.32Z" style="fill:#617f99;"/><path d="M887.46,246.07l.66-3.79c.77.27,1.98.49,2.8.49,3.74,0,5.77-1.98,7.09-6.6l-10.83-30.96h4.62l4.84,14.68c1.76,5.39,2.64,8.3,3.35,10.89h.22c.5-2.2,1.15-4.73,3.08-10.89l4.62-14.68h4.45l-10.56,32.01c-1.87,5.61-4.84,9.4-10.94,9.4-1.49,0-2.69-.27-3.41-.55Z" style="fill:#617f99;"/><path d="M914.13,231.82l2.64-3.19c1.82,1.87,4.67,3.3,8.14,3.3,4.18,0,6.21-2.2,6.21-4.73,0-6.76-15.12-4.07-15.12-14.19,0-4.29,3.68-8.3,10.23-8.3,3.57,0,6.93,1.26,8.74,3.19l-2.75,2.97c-1.38-1.43-3.79-2.42-6.1-2.42-4.07,0-5.88,2.04-5.88,4.46,0,6.71,15.12,4.01,15.12,14.19,0,4.12-3.46,8.52-10.67,8.52-4.95,0-8.69-1.87-10.56-3.79Z" style="fill:#617f99;"/><path d="M943.34,196.46c0-1.81,1.38-3.13,3.08-3.13,1.81,0,3.19,1.32,3.19,3.13s-1.38,3.08-3.19,3.08c-1.71,0-3.08-1.32-3.08-3.08ZM944.55,235.12v-29.92h4.29v29.92h-4.29Z" style="fill:#617f99;"/><path d="M956.1,231.82l2.64-3.19c1.82,1.87,4.67,3.3,8.14,3.3,4.18,0,6.21-2.2,6.21-4.73,0-6.76-15.12-4.07-15.12-14.19,0-4.29,3.68-8.3,10.23-8.3,3.57,0,6.93,1.26,8.74,3.19l-2.75,2.97c-1.38-1.43-3.79-2.42-6.1-2.42-4.07,0-5.88,2.04-5.88,4.46,0,6.71,15.12,4.01,15.12,14.19,0,4.12-3.46,8.52-10.67,8.52-4.95,0-8.69-1.87-10.56-3.79Z" style="fill:#617f99;"/><path d="M1001.58,235.12v-38.55h6.16l12.98,24.42c1.49,2.8,3.08,5.83,4.46,8.69h.38c-.11-3.52-.11-7.09-.11-10.34v-22.77h4.12v38.55h-6.05l-13.09-24.58c-1.54-2.86-2.97-5.77-4.4-8.74h-.44c.11,3.3.16,6.38.16,10.23v23.1h-4.18Z" style="fill:#617f99;"/><path d="M1037.77,220c0-10.83,6.05-15.29,12.7-15.29,7.09,0,10.89,4.62,10.89,11.71,0,1.48-.11,3.24-.33,5.17h-19.03c.38,7.37,3.46,10.17,9.46,10.17,2.97,0,5.66-1.16,6.93-2.25l1.92,3.3c-1.98,1.48-5.11,2.69-9.4,2.69-8.52,0-13.14-4.34-13.14-15.51ZM1057.08,218.08c.05-.66.05-1.32.05-1.71,0-5.11-2.2-7.97-7.04-7.97-3.9,0-7.64,2.47-8.03,9.68h15.01Z" style="fill:#617f99;"/><path d="M1070.17,227.15v-18.48h-4.45v-2.75l4.45-.83,1.32-7.75h2.91v7.86h8.25v3.46h-8.25v18.26c0,3.36,1.71,4.73,4.34,4.73,2.42,0,3.79-.55,4.56-1.04l1.21,3.41c-1.16.66-3.13,1.38-6.71,1.38-4.95,0-7.64-2.58-7.64-8.25Z" style="fill:#617f99;"/><path d="M1094.26,235.12l-7.92-29.92h4.4l4.18,16.5c.83,3.19,1.59,6.32,2.25,9.62h.22c.6-2.91,1.21-5.72,1.92-8.47l4.51-17.65h5.5l4.4,17.65c.66,2.75,1.32,5.44,1.92,8.47h.22c.71-3.24,1.48-6.54,2.31-9.68l4.23-16.44h4.12l-8.03,29.92h-5.77l-6.1-25.52h-.22l-6.38,25.52h-5.77Z" style="fill:#617f99;"/><path d="M1130.17,220.22c0-9.24,3.46-15.56,12.54-15.56s12.26,6.16,12.26,15.29-3.52,15.67-12.59,15.67-12.21-6.21-12.21-15.4ZM1150.57,220.28c0-8.03-2.42-11.93-8.19-11.93s-7.81,3.79-7.81,11.55,2.42,11.99,8.14,11.99,7.86-3.79,7.86-11.6Z" style="fill:#617f99;"/><path d="M1162.51,235.12v-29.92h3.24l.94,3.3h.22c1.32-2.14,4.07-3.79,7.53-3.79,1.38,0,2.36.11,3.02.28v4.45c-1.1-.33-2.25-.44-3.35-.44-2.92,0-5.94,1.15-7.37,3.85v22.27h-4.23Z" style="fill:#617f99;"/><path d="M1182.37,235.12v-41.74h4.29v41.74h-4.29ZM1198.76,235.12l-11.27-15.34v-.22l10.72-14.35h5.33l-11.05,14.24v.22l11.71,15.45h-5.44Z" style="fill:#617f99;"/></g></svg>