<?xml version="1.0" encoding="UTF-8"?><svg id="New_group" xmlns="http://www.w3.org/2000/svg" xmlns:xlink="http://www.w3.org/1999/xlink" viewBox="0 0 983.04 983.04"><defs><radialGradient id="radial-gradient" cx="491.52" cy="491.52" fx="491.52" fy="491.52" r="235.17" gradientUnits="userSpaceOnUse"><stop offset="0" stop-color="#fff" stop-opacity=".4"/><stop offset=".32" stop-color="#fff" stop-opacity=".27"/><stop offset="1" stop-color="#fff" stop-opacity="0"/></radialGradient></defs><g id="Layer_11"><circle cx="491.52" cy="491.48" r="333.07" style="fill:#1d3659;"/><circle cx="491.52" cy="491.52" r="235.17" style="fill:url(#radial-gradient);"/></g><g id="Layer_40_Image"><path d="M580.14,536.78c4.08,4,14.56.63,19.48-.68,29.04-7.73,76.12-47.11,105.64-32.66,19.18,9.39,16.15,41.72,30.5,46.61,20.45,6.98,47.58-18.05,71.53-9.98,2.37.8,11.19,5.37,12.48,8.01-.09.73-1.76,9.95-2.38,12.42-4.37,5.92-13.42-.05-19.35-.05-29.18,0-39.65,25.42-80.11,11.36-10.33-3.59-20.96-20.03-32.63-20.32-10.34-.25-57.88,25.95-74.63,30.43-41.39,11.06-74.09,3.2-94.14-36.81-19.89-39.67-6.99-72.44-67.25-56.58-63.11,16.61-201.06,123.82-260.45,76.48-18.31-14.59-31.16-50.83-30.28-81.05.32-10.82.8-20.9,1.85-28.95,50.53,121.56,160.26,21.58,230.28-17.54,40.91-22.86,170.31-87.36,199.34-23.03,15.29,33.86-23.43,109.05-9.87,122.34Z" style="fill:#fdffff;"/><path d="M793.09,633.07c-.11.1-.22.17-.33.25-43.09,29.36-68.3,2.12-95.88-3.38-58.06-11.56-118.11,51.44-191.73,11.53-45.64-24.74-36.52-67.41-101.37-45.35-30.14,10.25-57.12,32.67-89.37,37.65-75.48,11.65-145.26-34.67-144.5-55.33-.55-1.62-.84-3.06-1.09-4.16,2.08,4.75,84.98,61.61,144.41,42.96,39.95-12.54,96.72-54.73,137.76-42.72,23.97,7.02,38.79,37.49,61.25,50.3,62.61,35.72,122.89-20.93,182.93-14.28,35.84,3.97,41.7,23.26,86.51,10.78,3.27-.91,16.41-6.84,20.17-8.62.53-.9-7.36,17.99-8.76,20.37Z" style="fill:#fdffff;"/></g><g id="Layer_12"><circle cx="378.18" cy="702.28" r="22.68" style="fill:none; stroke:#fff; stroke-linecap:round; stroke-linejoin:round; stroke-width:6px;"/><path d="M509.27,688.17c-2.01-2.52-4.54-4.6-7.42-6.08-3.1-1.59-6.61-2.48-10.33-2.48-12.52,0-22.68,10.15-22.68,22.68s10.15,22.68,22.68,22.68c3.94,0,7.65-1.01,10.88-2.78,2.61-1.43,4.91-3.36,6.76-5.66" style="fill:none; stroke:#fff; stroke-linecap:round; stroke-linejoin:round; stroke-width:6px;"/><path d="M452.49,716.53c-4.16,5.14-10.52,8.43-17.65,8.43-12.52,0-22.68-10.15-22.68-22.68s10.15-22.68,22.68-22.68c7.04,0,13.34,3.21,17.5,8.25" style="fill:none; stroke:#fff; stroke-linecap:round; stroke-linejoin:round; stroke-width:6px;"/><path d="M537.49,722.28c-7.13-3.82-11.98-11.34-11.98-20,0-12.52,10.15-22.68,22.68-22.68s22.68,10.15,22.68,22.68c0,8.71-4.91,16.28-12.12,20.08" style="fill:none; stroke:#fff; stroke-linecap:round; stroke-linejoin:round; stroke-width:6px;"/><line x1="468.84" y1="702.28" x2="501.85" y2="702.28" style="fill:none; stroke:#fff; stroke-linecap:round; stroke-linejoin:round; stroke-width:6px;"/><line x1="525.52" y1="702.28" x2="570.87" y2="702.28" style="fill:none; stroke:#fff; stroke-linecap:round; stroke-linejoin:round; stroke-width:6px;"/><path d="M593.91,722.15c-6.99-3.86-11.72-11.31-11.72-19.86s4.95-16.34,12.21-20.12l21.02,40.2c7.21-3.8,12.12-11.36,12.12-20.08s-4.91-16.27-12.1-20.07" style="fill:none; stroke:#fff; stroke-linecap:round; stroke-linejoin:round; stroke-width:6px;"/></g></svg>